<svg xmlns="http://www.w3.org/2000/svg" fill="none" viewBox="0 0 128 128" id="shoppingcartremove">
  <circle cx="49" cy="107" r="5" fill="#34a853" class="color000000 svgShape"></circle>
  <circle cx="87" cy="107" r="5" fill="#34a853" class="color000000 svgShape"></circle>
  <path stroke="#4285f4" stroke-linecap="round" stroke-linejoin="round" stroke-width="7" d="M43.116 77H80.0627C87.276 77 90.8827 77 93.7816 75.2093C96.6806 73.4186 98.3028 70.178 101.547 63.6968V63.6968C109.382 48.045 113.3 40.2192 109.783 34.5255C106.266 28.8319 97.5594 28.8319 80.1468 28.8319H32.0126M43.116 77L32.2617 29.8155L31.3089 26.0536C30.2073 21.7046 29.6566 19.5301 28.0311 18.2651C26.4057 17 24.1625 17 19.6762 17H16M43.116 77H39.7626C35.4824 77 32.0126 80.4698 32.0126 84.75V84.75C32.0126 89.0302 35.4824 92.5 39.7626 92.5H94.8878" class="colorStroke000000 svgStroke"></path>
  <path stroke="#4285f4" stroke-linecap="round" stroke-linejoin="round" stroke-width="7" d="M64 54.6667L68.0845 58.8228C69.2601 60.0191 71.1882 60.0191 72.3638 58.8228L83 48" class="colorStroke000000 svgStroke"></path>
</svg>
